inDegrees=no
nColumns=32
nRows=12
DataType=double
version=3
OpenSimVersion=4.5
endheader
time	pelvis_tilt	pelvis_list	pelvis_rotation	pelvis_tz	pelvis_ty	pelvis_tx	hip_flexion_r	hip_adduction_r	hip_rotation_r	knee_angle_r	ankle_angle_r	subtalar_angle_r	mtp_angle_r	hip_flexion_l	hip_adduction_l	hip_rotation_l	knee_angle_l	ankle_angle_l	subtalar_angle_l	mtp_angle_l	lumbar_extension	lumbar_bending	lumbar_rotation	arm_flex_r	arm_add_r	arm_rot_r	elbow_flex_r	arm_flex_l	arm_add_l	arm_rot_l	elbow_flex_l
0.9099999999999999	-0.06097164798595604	-0.00506858709649465	-0.0003094191587227767	0.02214676000000002	1.00028726	1.11252422	0.2299783144933275	0.03158829821988462	-0.1797983029037561	-0.3056825144686436	0.2392081842061439	0.0492113997568739	0	0.4894124847991177	-0.1123129873559131	-0.160419287041925	-1.104358359860562	0.0563873605954226	-0.2025107316560845	0	-0.1074266551970832	0.04820095238200607	0.2364388629516216	-0.05643642092803153	-0.1550049880719779	-0.2808862453180405	0.6494738824786104	-0.06599975324773388	-0.1399786413267796	-0.06346916039722744	0.5113011052290682
0.9200000000000002	-0.05464396901486361	-0.003280200229121172	-0.0001794183122536511	0.02273309000000001	1.00192065	1.1242815	0.1999512649510977	0.03029090178629518	-0.1900065179759754	-0.2873120392094725	0.2463610943067285	0.06725075254662001	0	0.4961747793920647	-0.1085673753435833	-0.164228583849732	-1.067389776345325	0.08483908084172427	-0.1795895154485253	0	-0.1136284971655456	0.04519819962321488	0.235601649453391	-0.05464162049292235	-0.1579526831977844	-0.2717292352475133	0.6609462899680645	-0.07725276674155999	-0.1438142522891861	-0.05350340681376105	0.5147466394669771
0.9299999999999999	-0.05324013269228715	-0.003144350444640703	-0.0001675605662466458	0.02332922000000001	1.00262662	1.13557707	0.1768353914739319	0.03177609460020166	-0.192065938076422	-0.2709612739705408	0.2519571820591744	0.07686069528026028	0	0.507054437113759	-0.1058766103114958	-0.1676088045509057	-1.025621682598497	0.09323194230702994	-0.1734125688565134	0	-0.1137095020849209	0.04374643283154381	0.2368943764330996	-0.0535794913009091	-0.1592940228331489	-0.2667630712050984	0.6703631589693285	-0.08879010135185297	-0.1446751221546312	-0.05399116595130136	0.517193745365379
0.9399999999999997	-0.0466928697085812	-0.002570897381035234	-0.0001201266179964111	0.02391260000000001	1.00368056	1.14699013	0.1474190406654894	0.03222885971170654	-0.2004170132178423	-0.2527979382267208	0.2580414171103863	0.08930412490210898	0	0.5093632932131824	-0.1022240416270569	-0.1718544757341463	-0.976908986938903	0.09111029109584007	-0.1659751095249286	0	-0.1210504286518413	0.04195026266203767	0.2361376634540904	-0.05132343577468163	-0.1621078124590181	-0.2586115657369975	0.6831320645714061	-0.09846115696378473	-0.1464107705888635	-0.05280263861859526	0.5196737955751428
0.95	-0.04672861765217595	-0.0009978698682852169	-4.665989902919604e-05	0.02454032	1.00394079	1.15834012	0.1262253843382771	0.03240175447087006	-0.2006561517742324	-0.2372425652555494	0.2645136964501817	0.09684715640762011	0	0.5157599500544828	-0.09756407448342047	-0.1771900767609234	-0.9230107131699793	0.09693245728041623	-0.1535372639094888	0	-0.1200492559566185	0.03899921022088197	0.2352355903792629	-0.04888897548484211	-0.1618437382090719	-0.2539341377959253	0.6910379901709797	-0.1087959946260386	-0.1478248525803914	-0.05277059873685177	0.5197221900646422
0.9599999999999997	-0.03680311061110339	-0.0008151975712892387	-3.001221430772983e-05	0.02471577999999999	1.00485345	1.16999623	0.09273595411659943	0.03305673465124148	-0.2095463252622062	-0.2189341055589589	0.2711369294915151	0.1106740516297911	0	0.5085427762327079	-0.09247137529196647	-0.1805215355807902	-0.8636227360987699	0.1006998682805705	-0.13943429564783	0	-0.1312861605850475	0.03855305659111657	0.2332669879628451	-0.04681745117696704	-0.1657467016018457	-0.2476619272936152	0.7047307022113294	-0.1187100283441819	-0.1483538699051854	-0.05349086836841473	0.5224999161267103
0.97	-0.03736697564381682	-0.003330216008971284	-0.0001244946786976509	0.02539524000000001	1.00451423	1.18145023	0.07159637594359551	0.03783963510793966	-0.2114807103241058	-0.2024907235506055	0.2765663328898749	0.1174019649818031	0	0.5122580561679674	-0.09176533079193898	-0.1863728047815775	-0.8021506084842778	0.1038497414742635	-0.1261768762278435	0	-0.1296068950123009	0.04024010179447102	0.232151378915491	-0.04452262700113087	-0.1651228853224662	-0.2432387297709751	0.7131809300311542	-0.1282481867328852	-0.1477163650084825	-0.05429902143646798	0.5216236269754555
0.9799999999999998	-0.02798077224164877	-0.004456911422107627	-0.0001247368239509622	0.02572263	1.00483576	1.19289722	0.03941970262372115	0.04068290997712621	-0.2192672829790452	-0.1848917058119645	0.2814480449876418	0.1257678951440858	0	0.5013102993640517	-0.08848527139494466	-0.1931064841778393	-0.7341292572936525	0.1053916159500236	-0.1038271754142327	0	-0.1411439583984281	0.04102136300394247	0.2295873258342958	-0.0416731150233294	-0.1683345906446354	-0.2370728162778296	0.7265570444066468	-0.1365101059182576	-0.1469595548146339	-0.0575299508622162	0.5231791111796568
0.99	-0.0225079039228885	-0.009136188889194354	-0.0002056651886068705	0.02592947000000001	1.00446118	1.20459501	0.01074065062435336	0.04751201071238471	-0.2237259225537397	-0.1665334131255053	0.2862076735731597	0.1341372636049951	0	0.4933067676223237	-0.08854429651038494	-0.1991655592606861	-0.6651899292389899	0.08857184496183135	-0.1015474008634707	0	-0.1469435593956382	0.04626749339180757	0.2278567992432864	-0.03915269307903895	-0.1711427864902519	-0.2317977280851471	0.7364539252034344	-0.1445834227302643	-0.1446027939650993	-0.06093536521660944	0.5215478088255513
0.9999999999999998	-0.02267801388200586	-0.01253227904258665	-0.0002842453400164488	0.02621533000000001	1.00329569	1.2162263	-0.01079260226940115	0.05320188443031821	-0.2247653921360743	-0.1504984011611384	0.2930961977079939	0.1385622104711444	0	0.4898878229519704	-0.08731230227625671	-0.2086074594250163	-0.5925038156126086	0.07934826995349528	-0.09060006991989246	0	-0.1455509987100508	0.04981477980150888	0.2255711040121028	-0.03764527559150342	-0.1712390382569068	-0.2277704031763846	0.7461355227785812	-0.1533479539796444	-0.142382192533698	-0.06391199406168971	0.5204711281254325
1.01	-0.01232086374074376	-0.0178060163306062	-0.0002193818644596804	0.02631475999999999	1.00275991	1.2281908	-0.04471511587367483	0.06061266972041188	-0.231688674153896	-0.1323352320962619	0.2966940363577487	0.1456652219574805	0	0.4735021108108931	-0.08685488882935499	-0.2180901381601218	-0.5176301080471065	0.06520538967703481	-0.07897493687064376	0	-0.157213727198585	0.0556925141278759	0.2226249524554867	-0.0358683323181031	-0.1752002066349054	-0.2214160819140852	0.7593222478117485	-0.1603038912823038	-0.1392829286523252	-0.06976795104231497	0.5193224077387072
1.02	-0.01334537893212964	-0.02502974896502586	-0.0003340132833697601	0.02667540000000002	1.00081879	1.23985071	-0.06463289654963943	0.0705715432159669	-0.2295548325160127	-0.1177204727349934	0.3039673486949139	0.1494228317121543	0	0.4704517733953754	-0.08950293640440118	-0.2333290082378147	-0.4449491523922636	0.0525694029402684	-0.06862216734658898	0	-0.1553564577643555	0.06338453479231891	0.2204201052385786	-0.0341975457293956	-0.1761482413847877	-0.2182886943207445	0.7681154897273239	-0.1680992394527222	-0.1361044718524065	-0.07320928584351055	0.518548864200655
